<svg xmlns="http://www.w3.org/2000/svg" fill="#fff" height="24" viewBox="0 -960 960 960" width="24"><path d="M539.281-100.001q-99.872 0-170.153-70.038-70.28-70.039-70.28-169.961v-21.846q-81-10.538-135.5-72.23-54.5-61.692-54.5-145.923v-229.999h120v-40h59.999v139.999h-59.999v-40h-60.001v170q0 66 47 113t113 47q66 0 113-47t47-113v-170h-60.002v40h-59.998v-139.999h59.998v40h120v229.999q0 84.231-54.499 145.923-54.5 61.692-135.5 72.23V-340q0 75 52.612 127.5T539.231-160q75 0 127.5-52.5t52.5-127.5v-64.692q-31.538-9.308-51.923-36.269-20.384-26.961-20.384-61.345 0-42.628 29.852-72.467 29.853-29.84 72.499-29.84 42.647 0 72.454 29.84 29.807 29.839 29.807 72.467 0 34.384-20.384 61.345-20.385 26.961-51.923 36.269V-340q0 99.922-70.038 169.961-70.038 70.038-169.91 70.038ZM749.23-459.999q17.769 0 30.039-12.269 12.269-12.269 12.269-30.038 0-17.77-12.269-30.039-12.27-12.269-30.039-12.269-17.769 0-30.039 12.269-12.269 12.269-12.269 30.039 0 17.769 12.269 30.038 12.27 12.269 30.039 12.269Zm0-42.307Z"/></svg>